<svg version="1.2" xmlns="http://www.w3.org/2000/svg" viewBox="0 0 720 720" width="720" height="720">
	<title>New Project</title>
	<style>
		.s0 { fill: #ffffff } 
	</style>
	<path id="K" class="s0" aria-label="K"  d="m563.4 610.5q-27.8 0-56.3-6.8-28.5-6.7-60-26.2-30.7-19.5-66.7-57l-120.8-126v208.5h-97.5l-0.7-397.5q0-33.8-9.8-54-9-21-42.7-21h-7.5v-22.5h90q26.2 0 40.5 9 15 9 21 30 6.7 21 6.7 58.5v142.5l129.8-161.3q16.5-20.9 36-38.9 19.5-18 43.5-28.5 24-11.3 53.2-11.3h52.5v26.3q-42.7 0-77.2 11.2-34.5 10.5-60 42l-111.8 138 173.3 180q18.7 20.3 40.5 38.3 22.5 17.2 43.5 28.5 21 10.5 35.2 12.7v18q-8.2 3-23.2 5.3-14.3 2.2-31.5 2.2z"/>
</svg>